<?xml version="1.0" encoding="utf-8"?>
<!-- Generator: Adobe Illustrator 24.0.1, SVG Export Plug-In . SVG Version: 6.00 Build 0)  -->
<svg version="1.1" id="Capa_1" xmlns="http://www.w3.org/2000/svg" xmlns:xlink="http://www.w3.org/1999/xlink" x="0px" y="0px"
	 viewBox="0 0 512 512" style="enable-background:new 0 0 512 512;" xml:space="preserve">
<style type="text/css">
	.st0{fill:#F9A72D;}
	.st1{display:none;fill:#F9A72D;}
	.st2{display:none;fill:#FAFAFA;}
</style>
<path class="st0" d="M512,64v384c0,35.3-28.7,64-64,64h-96V336h48l32-80h-80v-64c0-17.66,14.34-16,32-16h32V96h-64
	c-26.51,0-50.51,10.74-67.88,28.12C266.74,141.49,256,165.49,256,192v64h-64v80h64v176H64c-35.3,0-64-28.7-64-64V64
	C0,28.7,28.7,0,64,0h384C483.3,0,512,28.7,512,64z"/>
<path class="st1" d="M432,256l-32,80h-48v176h-96V336h-64v-80h64v-64c0-26.51,10.74-50.51,28.12-67.88
	C301.49,106.74,325.49,96,352,96h64v80h-32c-17.66,0-32-1.66-32,16v64H432z"/>
<path class="st2" d="M432,256l-32,80h-48v176h-96V336h-64v-80h64v-64c0-26.51,10.74-50.51,28.12-67.88
	C301.49,106.74,325.49,96,352,96h64v80h-32c-17.66,0-32-1.66-32,16v64H432z"/>
</svg>
