<?xml version="1.0" encoding="utf-8"?>
<!-- Generator: Adobe Illustrator 24.0.1, SVG Export Plug-In . SVG Version: 6.00 Build 0)  -->
<svg version="1.1" id="Layer_1" xmlns="http://www.w3.org/2000/svg" xmlns:xlink="http://www.w3.org/1999/xlink" x="0px" y="0px"
	 viewBox="0 0 227 76" style="enable-background:new 0 0 227 76;" xml:space="preserve">
<style type="text/css">
	.st0{fill:#FFFFFF;}
</style>
<g id="Group_6" transform="translate(-156.593 -395.173)">
	<g id="Group_4" transform="translate(235.771 413.368)">
		<g id="Group_3">
			<g id="Group_2">
				<path id="Path_20" class="st0" d="M7.53,27.17H2.64V9.83h4.89v1.63c1.24-1.33,3-2.06,4.82-1.98c3.47,0,5.52,2.12,5.52,6.56
					v11.13h-4.89V16.15c0.18-1.22-0.67-2.35-1.89-2.52c-0.18-0.03-0.36-0.03-0.54-0.01c-1.8,0-3.02,1.49-3.02,5.38L7.53,27.17z"/>
				<path id="Path_21" class="st0" d="M37.01,25.82c-2.13,1.07-4.48,1.65-6.87,1.7c-5.9,0-9.54-3.43-9.54-9.02
					c0-5.41,2.91-9.02,8.64-9.02c5.41,0,8.08,3.47,8.08,8.26v2.57H25.67c0.49,1.94,1.91,3.09,4.58,3.09
					c1.82-0.08,3.59-0.57,5.2-1.42L37.01,25.82z M25.78,16.32h6.63c-0.14-1.87-1.42-2.7-3.16-2.7
					C27.58,13.54,26.11,14.69,25.78,16.32L25.78,16.32z"/>
				<path id="Path_22" class="st0" d="M39.62,18.5c0-5.41,2.88-9.02,8.64-9.02s8.6,3.61,8.6,9.02s-2.85,9.02-8.6,9.02
					S39.62,23.91,39.62,18.5z M44.51,18.5c0,2.98,1.21,4.89,3.75,4.89s3.71-1.91,3.71-4.89s-1.18-4.89-3.71-4.89
					S44.51,15.52,44.51,18.5L44.51,18.5z"/>
				<path id="Path_23" class="st0" d="M62.06,9.83l3.57,10.3l3.64-10.3h5.24l-6.8,17.34h-4.13l-6.8-17.34H62.06z"/>
				<path id="Path_24" class="st0" d="M76.8,13.96h-2.01V9.83h4.61c1.73,0,2.29,0.28,2.29,1.91v15.43H76.8V13.96z M76.9,2.9h4.72
					v4.58H76.9V2.9z"/>
				<path id="Path_25" class="st0" d="M96.12,14.93c-1.43-0.8-3.04-1.26-4.68-1.32c-1.14,0-1.91,0.35-1.91,1.07
					c0,2.18,8.84,1.15,8.84,7.08c0,4.09-3.12,5.76-7.21,5.76c-2.62,0.11-5.19-0.7-7.28-2.29l2.25-3.74c1.46,1.13,3.22,1.8,5.06,1.91
					c1.08,0,2.29-0.14,2.29-1.28c0-2.6-8.85-0.97-8.85-7.42c0-3.74,3.33-5.2,6.97-5.2c2.19-0.02,4.36,0.5,6.31,1.49L96.12,14.93z"/>
				<path id="Path_26" class="st0" d="M101.64,13.96h-2.01V9.83h4.61c1.73,0,2.29,0.28,2.29,1.91v15.43h-4.89L101.64,13.96z
					 M101.74,2.9h4.72v4.58h-4.72V2.9z"/>
				<path id="Path_27" class="st0" d="M109.27,18.5c0-5.41,2.88-9.02,8.64-9.02s8.6,3.61,8.6,9.02s-2.85,9.02-8.6,9.02
					S109.27,23.91,109.27,18.5z M114.16,18.5c0,2.98,1.21,4.89,3.75,4.89s3.71-1.91,3.71-4.89s-1.18-4.89-3.71-4.89
					S114.16,15.52,114.16,18.5z"/>
				<path id="Path_28" class="st0" d="M134.17,27.17h-4.89V9.83h4.89v1.63c1.24-1.33,3-2.06,4.82-1.98c3.47,0,5.52,2.12,5.52,6.56
					v11.13h-4.89V16.15c0.18-1.22-0.67-2.34-1.88-2.52c-0.18-0.03-0.36-0.03-0.54-0.01c-1.8,0-3.02,1.49-3.02,5.38L134.17,27.17z"/>
			</g>
		</g>
	</g>
	<g id="Group_5" transform="translate(156.593 395.173)">
		<path id="Path_29" class="st0" d="M58.9,37.9c0-1.62,0.01-3.24-0.01-4.86c-0.01-0.47,0.09-0.66,0.62-0.65
			c3.24,0.03,6.47,0.03,9.71,0c0.48,0,0.6,0.15,0.6,0.61c-0.02,3.26-0.02,6.52,0,9.78c0,0.46-0.11,0.62-0.59,0.62
			c-3.24-0.02-6.47-0.03-9.71,0c-0.54,0-0.63-0.19-0.63-0.65C58.92,41.13,58.9,39.51,58.9,37.9z"/>
		<path id="Path_30" class="st0" d="M8.06,43.38c-1.57,0-3.15-0.02-4.72,0.01c-0.52,0.01-0.71-0.11-0.71-0.67
			c0.02-3.22,0.02-6.43,0-9.65c0-0.45,0.06-0.68,0.62-0.68c3.22,0.03,6.43,0.02,9.65,0c0.49,0,0.65,0.12,0.65,0.63
			c-0.02,3.24-0.02,6.48,0,9.72c0,0.49-0.12,0.65-0.63,0.64C11.3,43.35,9.68,43.38,8.06,43.38z"/>
		<path id="Path_31" class="st0" d="M36.17,22.19c-1.6,0-3.19-0.02-4.79,0.01c-0.51,0.01-0.65-0.16-0.64-0.65
			c0.02-3.21,0.02-6.43,0-9.64c0-0.5,0.14-0.64,0.64-0.64c3.24,0.02,6.48,0.02,9.71,0c0.49,0,0.65,0.13,0.64,0.63
			c-0.02,3.21-0.02,6.43,0,9.64c0,0.49-0.12,0.67-0.64,0.66C39.45,22.17,37.81,22.19,36.17,22.19z"/>
		<path id="Path_32" class="st0" d="M36.2,64.5c-1.62,0-3.24-0.01-4.86,0.01c-0.45,0.01-0.62-0.09-0.61-0.58
			c0.02-3.24,0.02-6.47,0-9.71c0-0.51,0.16-0.64,0.65-0.64c3.24,0.02,6.47,0.02,9.71,0c0.5,0,0.65,0.14,0.65,0.64
			c-0.02,3.21-0.02,6.43,0.01,9.64c0.01,0.57-0.2,0.66-0.7,0.65C39.43,64.49,37.82,64.5,36.2,64.5z"/>
		<path id="Path_33" class="st0" d="M15.13,23.73c0-1.4,0.02-2.81-0.01-4.22c-0.01-0.51,0.16-0.64,0.66-0.64
			c2.81,0.02,5.62,0.02,8.43,0c0.46,0,0.61,0.12,0.61,0.6c-0.02,2.83-0.02,5.67,0,8.5c0,0.48-0.14,0.61-0.61,0.61
			c-2.81-0.02-5.62-0.03-8.43,0c-0.57,0.01-0.67-0.2-0.66-0.71C15.14,26.5,15.13,25.11,15.13,23.73z"/>
		<path id="Path_34" class="st0" d="M20.01,47.22c1.38,0,2.76,0.02,4.15-0.01c0.46-0.01,0.67,0.06,0.67,0.61
			c-0.03,2.84-0.02,5.67-0.01,8.51c0,0.43-0.1,0.58-0.55,0.58c-2.86-0.02-5.72-0.02-8.58,0c-0.47,0-0.55-0.16-0.55-0.58
			c0.01-2.84,0.01-5.67,0-8.51c0-0.46,0.09-0.63,0.59-0.61C17.15,47.24,18.58,47.22,20.01,47.22z"/>
		<path id="Path_35" class="st0" d="M52.47,56.89c-1.38,0-2.76-0.02-4.15,0.01c-0.47,0.01-0.67-0.06-0.66-0.61
			c0.03-2.83,0.02-5.67,0-8.51c0-0.43,0.1-0.58,0.55-0.58c2.86,0.02,5.72,0.02,8.58,0c0.46,0,0.55,0.15,0.55,0.58
			c-0.02,2.84-0.02,5.67,0.01,8.51c0.01,0.55-0.2,0.62-0.66,0.61C55.28,56.88,53.87,56.89,52.47,56.89L52.47,56.89z"/>
		<path id="Path_36" class="st0" d="M52.5,18.94c1.43,0,2.86,0.01,4.29-0.01c0.4-0.01,0.53,0.1,0.53,0.51
			c-0.02,2.86-0.02,5.72,0,8.58c0,0.43-0.15,0.5-0.54,0.5c-2.84-0.01-5.67-0.02-8.51,0.01c-0.5,0-0.59-0.18-0.59-0.62
			c0.01-2.79,0.02-5.58,0-8.36c0-0.54,0.2-0.62,0.67-0.61C49.73,18.96,51.11,18.94,52.5,18.94z"/>
		<path id="Path_37" class="st0" d="M51.22,13.65c-0.95,0-1.9-0.02-2.85,0.01c-0.4,0.01-0.52-0.13-0.52-0.53
			c0.02-1.88,0.02-3.76,0-5.63c-0.01-0.43,0.15-0.51,0.54-0.51c1.9,0.02,3.8,0.02,5.71,0c0.4,0,0.53,0.12,0.53,0.53
			c-0.02,1.88-0.02,3.76,0,5.64c0,0.43-0.16,0.52-0.54,0.52C53.12,13.64,52.17,13.65,51.22,13.65z"/>
		<path id="Path_38" class="st0" d="M21.21,68.79c-0.93,0-1.86-0.02-2.78,0.01c-0.42,0.01-0.58-0.09-0.58-0.55
			c0.03-1.85,0.02-3.71,0-5.56c0-0.42,0.1-0.59,0.56-0.58c1.9,0.02,3.8,0.02,5.71,0c0.4,0,0.53,0.11,0.53,0.53
			c-0.02,1.88-0.02,3.76,0,5.64c0,0.4-0.09,0.54-0.51,0.53C23.16,68.77,22.18,68.79,21.21,68.79z"/>
		<path id="Path_39" class="st0" d="M60,15.94c0-0.76,0.02-1.52-0.01-2.28c-0.01-0.39,0.08-0.55,0.51-0.55
			c1.59,0.02,3.19,0.01,4.78,0c0.37,0,0.5,0.14,0.49,0.51c-0.01,1.59-0.01,3.19,0,4.78c0,0.39-0.15,0.49-0.51,0.48
			c-1.59-0.01-3.19-0.02-4.78,0.01c-0.42,0.01-0.47-0.2-0.46-0.52c0.01-0.81,0-1.62,0-2.42L60,15.94z"/>
		<path id="Path_40" class="st0" d="M9.61,56.91c0.76,0,1.52,0.02,2.28-0.01c0.41-0.01,0.58,0.07,0.59,0.54
			c0.03,1.56-0.16,3.12-0.01,4.68c0.04,0.46-0.15,0.56-0.57,0.56c-1.54-0.02-3.09-0.02-4.63,0c-0.43,0.01-0.58-0.13-0.57-0.57
			c0.02-1.54,0.02-3.09,0-4.63c-0.01-0.44,0.13-0.59,0.57-0.57C8.04,56.93,8.82,56.91,9.61,56.91z"/>
		<path id="Path_41" class="st0" d="M43.57,5.3c0,0.59-0.02,1.19,0.01,1.78c0.01,0.36-0.08,0.5-0.48,0.5
			c-1.21-0.02-2.43-0.02-3.64,0c-0.38,0.01-0.56-0.09-0.55-0.52c0.02-1.21,0.02-2.43,0-3.64c-0.01-0.42,0.15-0.53,0.54-0.52
			c1.21,0.02,2.43,0.02,3.64,0C43.46,2.9,43.6,3,43.58,3.39c-0.03,0.64-0.01,1.28-0.01,1.93L43.57,5.3z"/>
		<path id="Path_42" class="st0" d="M28.9,70.5c0-0.62,0.02-1.24-0.01-1.85c-0.01-0.35,0.1-0.44,0.45-0.44
			c1.24,0.02,2.47,0.02,3.71,0c0.42-0.01,0.52,0.15,0.52,0.55c-0.02,1.19-0.02,2.38,0,3.56c0.01,0.42-0.1,0.59-0.55,0.58
			c-1.21-0.03-2.42-0.03-3.63,0c-0.37,0.01-0.5-0.09-0.48-0.47C28.92,71.78,28.9,71.14,28.9,70.5z"/>
		<path id="Path_43" class="st0" d="M25.91,15.75c-1.53,0-1.53,0-1.53-1.52s0-1.52,1.54-1.52c1.49,0,1.49,0,1.49,1.49v0.07
			C27.41,15.75,27.41,15.75,25.91,15.75z"/>
		<path id="Path_44" class="st0" d="M46.61,60.03c1.49,0,1.49,0,1.49,1.48c0,1.56,0,1.56-1.55,1.56c-1.48,0-1.48,0-1.48-1.48
			C45.07,60.04,45.07,60.04,46.61,60.03z"/>
		<path id="Path_45" class="st0" d="M61.55,49.53c0-1.5,0-1.5,1.51-1.5c1.51,0,1.5,0,1.5,1.51c0,1.55,0,1.55-1.48,1.54
			C61.55,51.08,61.55,51.08,61.55,49.53z"/>
		<path id="Path_46" class="st0" d="M9.48,24.71c1.45,0,1.45,0,1.45,1.44c0,1.61,0,1.61-1.63,1.61c-1.38,0-1.38,0-1.38-1.36v-0.14
			C7.92,24.7,7.92,24.7,9.48,24.71z"/>
		<path id="Path_47" class="st0" d="M36.47,26.79c-6.06-0.03-11,4.87-11.03,10.93s4.87,11,10.93,11.03
			c6.06,0.03,11-4.87,11.03-10.93c0-0.02,0-0.04,0-0.06C47.38,31.72,42.5,26.83,36.47,26.79z M39.85,35.91
			c-1.63,0.01-2.95-1.31-2.96-2.94c0-0.03,0-0.05,0-0.08c-0.04-1.65,1.27-3.02,2.92-3.06c0.03,0,0.06,0,0.1,0
			c1.68,0.02,3.03,1.39,3.01,3.07C42.9,34.58,41.52,35.92,39.85,35.91L39.85,35.91L39.85,35.91z"/>
	</g>
</g>
</svg>
