<?xml version="1.0" encoding="utf-8"?>
<!-- Generator: Adobe Illustrator 24.0.1, SVG Export Plug-In . SVG Version: 6.00 Build 0)  -->
<svg version="1.1" xmlns="http://www.w3.org/2000/svg" xmlns:xlink="http://www.w3.org/1999/xlink" x="0px" y="0px"
	 viewBox="0 0 1920 1281" style="enable-background:new 0 0 1920 1281;" xml:space="preserve">
<style type="text/css">
	.st0{fill:url(#SVGID_1_);}
	.st1{opacity:0.37;fill:#4A256F;}
	.st2{opacity:0.59;}
	.st3{fill:#4D2B69;}
	.st4{fill:#591D57;}
	.st5{fill:#805087;}
	.st6{fill:#9B78A1;}
	.st7{fill:#E6E1E6;}
	.st8{fill:#B98CB3;}
	.st9{opacity:0.32;fill:#591D57;}
	.st10{fill:#512F66;}
	.st11{fill:#C58A5B;}
	.st12{fill:#E4BD83;}
	.st13{fill:#EAD0B6;}
	.st14{fill:#F6EEE5;}
	.st15{fill:#444248;}
	.st16{fill:#EEA67B;}
	.st17{fill:#F5B795;}
	.st18{fill:#FFFFFF;}
	.st19{fill:#EE9621;}
	.st20{opacity:0.55;fill:#49546D;}
	.st21{fill:#F9A72D;}
	.st22{opacity:0.5;fill:#EE5605;}
	.st23{fill:url(#SVGID_2_);}
	.st24{fill-rule:evenodd;clip-rule:evenodd;fill:#FDD5B6;}
	.st25{fill-rule:evenodd;clip-rule:evenodd;fill:#F9A72D;}
	.st26{fill-rule:evenodd;clip-rule:evenodd;fill:#FFF2E8;}
	.st27{fill-rule:evenodd;clip-rule:evenodd;fill:#49546D;}
	.st28{fill-rule:evenodd;clip-rule:evenodd;fill:#808184;}
	.st29{opacity:0.36;fill-rule:evenodd;clip-rule:evenodd;}
	.st30{display:none;}
</style>
<g id="Layer_1">
	<linearGradient id="SVGID_1_" gradientUnits="userSpaceOnUse" x1="959.7032" y1="32.0293" x2="960.5746" y2="1247.6824">
		<stop  offset="0" style="stop-color:#783292"/>
		<stop  offset="0.5243" style="stop-color:#622C81"/>
		<stop  offset="1" style="stop-color:#4A256F"/>
	</linearGradient>
	<path class="st0" d="M1918.45,1283H1.83c-0.94,0-1.69-0.76-1.69-1.69V1.69C0.14,0.76,0.9,0,1.83,0h1916.61
		c0.94,0,1.69,0.76,1.69,1.69v1279.61C1920.14,1282.24,1919.38,1283,1918.45,1283z"/>
	<g>
		<path class="st1" d="M811.54,467.64v15.87h-67.32v-93.15h-27.61h-13.93h-15.74H645.4h-28.48v42.12h-4.59h-41.25h-56.25h-44.32
			v54.15h-5.64h-4.72v-96.27h-27.61h-13.93h-15.74h-41.54h-28.48v42.12h-4.59h-41.25h-10.36v-16.04v-28.3h-32.7h-10.12h-31.41H159.6
			h-33.74v95.37H37.56v-15.87H24.2v682.59h13.36v-30.35h161.17v30.35h13.36v-130.47h424.93v130.47h13.36v-30.35h161.17v30.35h13.36
			V467.64H811.54z M811.54,987.18h-32.4v-58.77h-27.61h-8.55h-25.83v-14.87v-64.95h-39.27h-19.82h-7.69v-29.3h161.17V987.18z
			 M443.49,866.2v23.57h-24.77h-8.55h-26.51h-36.15h-9.15v-54.15h-42.95h-13.3h-41.25h-28.78v-16.33h424.93v29.3h-1.34h-59.1h-40.52
			v17.6h-5.59h-51.59H443.49z M637.01,616.62v51.6h-18.9h-43.98h-34.65v21.08h-7.41h-8.55h-26.51h-36.15h-9.15v-54.15h-42.95h-13.3
			h-41.25h-56.25h-33.24v-8.77h-33.58h-9.43h-0.96h-8.68v-9.76H637.01z M660.76,668.22h-10.39v-51.6h161.17v170.1H694.34v-118.5
			H660.76z M198.73,616.62v9.76h-10.21h-43.97h-34.65v160.33H37.56v-170.1H198.73z M198.73,819.29v16.33h-14.11H140.3v151.57H37.56
			V819.29H198.73z M776.54,584.05v-82.02h34.99v82.02H776.54z M78.33,502.03v82.02H37.56v-82.02H78.33z M198.73,1101.36H37.56v-81.6
			h161.17V1101.36z M650.37,1101.36v-81.6h161.17v81.6H650.37z"/>
		<g class="st2">
			<g>
				<rect x="637.01" y="467.64" class="st3" width="13.36" height="682.59"/>
				<rect x="811.54" y="467.64" class="st3" width="13.36" height="682.59"/>
				<rect x="643.69" y="483.51" class="st3" width="174.52" height="18.52"/>
				<rect x="643.69" y="792.43" class="st3" width="174.52" height="18.52"/>
				<rect x="643.69" y="1101.36" class="st3" width="174.52" height="18.52"/>
			</g>
			<g>
				<rect x="536.05" y="848.59" class="st4" width="141.83" height="138.59"/>
				<rect x="576.57" y="848.59" class="st5" width="140.58" height="138.59"/>
				<rect x="635.67" y="848.59" class="st6" width="22.39" height="35.66"/>
				<rect x="635.67" y="951.52" class="st6" width="22.39" height="35.66"/>
				<g>
					<rect x="670.74" y="958.77" class="st7" width="36.47" height="22.03"/>
					<g>
						<rect x="672.41" y="961.86" class="st8" width="3.87" height="15.85"/>
						<rect x="678.63" y="961.86" class="st8" width="1.36" height="15.85"/>
						<rect x="685.55" y="961.86" class="st8" width="3.17" height="15.85"/>
						<rect x="681.55" y="961.86" class="st8" width="1.94" height="15.85"/>
						<rect x="691.09" y="961.86" class="st8" width="1.31" height="15.85"/>
						<rect x="697.29" y="961.86" class="st8" width="2.62" height="15.85"/>
						<rect x="700.82" y="961.86" class="st8" width="1.3" height="15.85"/>
						<rect x="694.32" y="961.86" class="st8" width="1.8" height="15.85"/>
						<rect x="703.51" y="961.86" class="st8" width="1.94" height="15.85"/>
					</g>
				</g>
			</g>
			<rect x="536.05" y="913.54" class="st9" width="181.11" height="73.64"/>
			<g>
				<rect x="616.92" y="390.36" class="st4" width="99.7" height="97.42"/>
				<rect x="645.4" y="390.36" class="st5" width="98.82" height="97.42"/>
				<rect x="686.94" y="390.36" class="st6" width="15.74" height="25.07"/>
				<rect x="686.94" y="462.71" class="st6" width="15.74" height="25.07"/>
				<g>
					<rect x="711.59" y="467.8" class="st7" width="25.64" height="15.49"/>
					<g>
						<rect x="712.76" y="469.97" class="st8" width="2.72" height="11.14"/>
						<rect x="717.14" y="469.97" class="st8" width="0.95" height="11.14"/>
						<rect x="722" y="469.97" class="st8" width="2.23" height="11.14"/>
						<rect x="719.19" y="469.97" class="st8" width="1.36" height="11.14"/>
						<rect x="725.9" y="469.97" class="st8" width="0.92" height="11.14"/>
						<rect x="730.26" y="469.97" class="st8" width="1.84" height="11.14"/>
						<rect x="732.73" y="469.97" class="st8" width="0.92" height="11.14"/>
						<rect x="728.17" y="469.97" class="st8" width="1.26" height="11.14"/>
						<rect x="734.63" y="469.97" class="st8" width="1.36" height="11.14"/>
					</g>
				</g>
			</g>
			<g>
				<rect x="651.83" y="928.41" class="st4" width="99.7" height="58.77"/>
				<rect x="680.32" y="928.41" class="st5" width="98.82" height="58.77"/>
				<rect x="716.47" y="928.41" class="st6" width="26.51" height="17.41"/>
				<g>
					<rect x="685.05" y="967.21" class="st7" width="25.64" height="15.49"/>
					<g>
						<rect x="686.23" y="969.38" class="st8" width="2.72" height="11.14"/>
						<rect x="690.6" y="969.38" class="st8" width="0.95" height="11.14"/>
						<rect x="695.46" y="969.38" class="st8" width="2.23" height="11.14"/>
						<rect x="692.65" y="969.38" class="st8" width="1.36" height="11.14"/>
						<rect x="699.36" y="969.38" class="st8" width="0.92" height="11.14"/>
						<rect x="703.72" y="969.38" class="st8" width="1.84" height="11.14"/>
						<rect x="706.19" y="969.38" class="st8" width="0.92" height="11.14"/>
						<rect x="701.63" y="969.38" class="st8" width="1.26" height="11.14"/>
						<rect x="708.09" y="969.38" class="st8" width="1.36" height="11.14"/>
					</g>
				</g>
			</g>
			<g>
				<rect x="649.24" y="486.63" class="st4" width="99.7" height="97.42"/>
				<rect x="677.73" y="486.63" class="st5" width="98.82" height="97.42"/>
				<rect x="713.88" y="486.63" class="st6" width="26.51" height="25.07"/>
				<rect x="713.88" y="558.98" class="st6" width="26.51" height="25.07"/>
				<g>
					<rect x="682.46" y="564.07" class="st7" width="25.64" height="15.49"/>
					<g>
						<rect x="683.63" y="566.25" class="st8" width="2.72" height="11.14"/>
						<rect x="688.01" y="566.25" class="st8" width="0.95" height="11.14"/>
						<rect x="692.87" y="566.25" class="st8" width="2.23" height="11.14"/>
						<rect x="690.06" y="566.25" class="st8" width="1.36" height="11.14"/>
						<rect x="696.77" y="566.25" class="st8" width="0.92" height="11.14"/>
						<rect x="701.12" y="566.25" class="st8" width="1.84" height="11.14"/>
						<rect x="703.6" y="566.25" class="st8" width="0.92" height="11.14"/>
						<rect x="699.03" y="566.25" class="st8" width="1.26" height="11.14"/>
						<rect x="705.5" y="566.25" class="st8" width="1.36" height="11.14"/>
					</g>
				</g>
			</g>
			<g>
				<rect x="470.52" y="432.48" class="st4" width="155.11" height="151.57"/>
				<rect x="514.83" y="432.48" class="st5" width="153.74" height="151.57"/>
				<rect x="571.08" y="432.48" class="st6" width="41.25" height="39"/>
				<rect x="571.08" y="545.05" class="st6" width="41.25" height="39"/>
				<g>
					<rect x="522.2" y="552.97" class="st7" width="39.89" height="24.1"/>
					<g>
						<rect x="524.02" y="556.35" class="st8" width="4.23" height="17.34"/>
						<rect x="530.83" y="556.35" class="st8" width="1.48" height="17.34"/>
						<rect x="538.39" y="556.35" class="st8" width="3.47" height="17.34"/>
						<rect x="534.02" y="556.35" class="st8" width="2.12" height="17.34"/>
						<rect x="544.46" y="556.35" class="st8" width="1.43" height="17.34"/>
						<rect x="551.24" y="556.35" class="st8" width="2.87" height="17.34"/>
						<rect x="555.09" y="556.35" class="st8" width="1.42" height="17.34"/>
						<rect x="547.99" y="556.35" class="st8" width="1.97" height="17.34"/>
						<rect x="558.04" y="556.35" class="st8" width="2.12" height="17.34"/>
					</g>
				</g>
			</g>
			<g>
				<rect x="443.49" y="866.2" class="st4" width="123.82" height="120.99"/>
				<rect x="478.87" y="866.2" class="st5" width="122.73" height="120.99"/>
				<rect x="530.46" y="866.2" class="st6" width="19.55" height="31.13"/>
				<rect x="530.46" y="956.05" class="st6" width="19.55" height="31.13"/>
				<g>
					<rect x="561.08" y="962.38" class="st7" width="31.84" height="19.24"/>
					<g>
						<rect x="562.53" y="965.07" class="st8" width="3.38" height="13.84"/>
						<rect x="567.96" y="965.07" class="st8" width="1.19" height="13.84"/>
						<rect x="574" y="965.07" class="st8" width="2.77" height="13.84"/>
						<rect x="570.51" y="965.07" class="st8" width="1.69" height="13.84"/>
						<rect x="578.84" y="965.07" class="st8" width="1.14" height="13.84"/>
						<rect x="584.26" y="965.07" class="st8" width="2.29" height="13.84"/>
						<rect x="587.33" y="965.07" class="st8" width="1.14" height="13.84"/>
						<rect x="581.66" y="965.07" class="st8" width="1.57" height="13.84"/>
						<rect x="589.69" y="965.07" class="st8" width="1.69" height="13.84"/>
					</g>
				</g>
			</g>
			<g>
				<rect x="319.03" y="889.77" class="st4" width="99.7" height="97.42"/>
				<rect x="347.51" y="889.77" class="st5" width="98.82" height="97.42"/>
				<rect x="383.66" y="889.77" class="st6" width="26.51" height="25.07"/>
				<rect x="383.66" y="962.12" class="st6" width="26.51" height="25.07"/>
				<g>
					<rect x="352.25" y="967.21" class="st7" width="25.64" height="15.49"/>
					<g>
						<rect x="353.42" y="969.38" class="st8" width="2.72" height="11.14"/>
						<rect x="357.79" y="969.38" class="st8" width="0.95" height="11.14"/>
						<rect x="362.65" y="969.38" class="st8" width="2.23" height="11.14"/>
						<rect x="359.84" y="969.38" class="st8" width="1.36" height="11.14"/>
						<rect x="366.55" y="969.38" class="st8" width="0.92" height="11.14"/>
						<rect x="370.91" y="969.38" class="st8" width="1.84" height="11.14"/>
						<rect x="373.38" y="969.38" class="st8" width="0.92" height="11.14"/>
						<rect x="368.82" y="969.38" class="st8" width="1.26" height="11.14"/>
						<rect x="375.28" y="969.38" class="st8" width="1.36" height="11.14"/>
					</g>
				</g>
			</g>
			<g>
				<rect x="140.3" y="835.62" class="st4" width="155.11" height="151.57"/>
				<rect x="184.62" y="835.62" class="st5" width="153.74" height="151.57"/>
				<rect x="240.86" y="835.62" class="st6" width="41.25" height="39"/>
				<rect x="240.86" y="948.18" class="st6" width="41.25" height="39"/>
				<g>
					<rect x="191.99" y="956.11" class="st7" width="39.89" height="24.1"/>
					<g>
						<rect x="193.81" y="959.49" class="st8" width="4.23" height="17.34"/>
						<rect x="200.61" y="959.49" class="st8" width="1.48" height="17.34"/>
						<rect x="208.18" y="959.49" class="st8" width="3.47" height="17.34"/>
						<rect x="203.8" y="959.49" class="st8" width="2.12" height="17.34"/>
						<rect x="214.24" y="959.49" class="st8" width="1.43" height="17.34"/>
						<rect x="221.02" y="959.49" class="st8" width="2.87" height="17.34"/>
						<rect x="224.87" y="959.49" class="st8" width="1.42" height="17.34"/>
						<rect x="217.77" y="959.49" class="st8" width="1.97" height="17.34"/>
						<rect x="227.82" y="959.49" class="st8" width="2.12" height="17.34"/>
					</g>
				</g>
			</g>
			<g>
				<rect x="125.85" y="388.14" class="st4" width="118.11" height="115.41"/>
				<rect x="159.6" y="388.14" class="st5" width="117.06" height="115.41"/>
				<rect x="202.42" y="388.14" class="st6" width="31.41" height="29.7"/>
				<rect x="202.42" y="473.85" class="st6" width="31.41" height="29.7"/>
				<g>
					<rect x="165.21" y="479.89" class="st7" width="30.37" height="18.35"/>
					<g>
						<rect x="166.59" y="482.46" class="st8" width="3.22" height="13.2"/>
						<rect x="171.77" y="482.46" class="st8" width="1.13" height="13.2"/>
						<rect x="177.54" y="482.46" class="st8" width="2.64" height="13.2"/>
						<rect x="174.2" y="482.46" class="st8" width="1.61" height="13.2"/>
						<rect x="182.15" y="482.46" class="st8" width="1.09" height="13.2"/>
						<rect x="187.32" y="482.46" class="st8" width="2.18" height="13.2"/>
						<rect x="190.25" y="482.46" class="st8" width="1.08" height="13.2"/>
						<rect x="184.84" y="482.46" class="st8" width="1.5" height="13.2"/>
						<rect x="192.5" y="482.46" class="st8" width="1.61" height="13.2"/>
					</g>
				</g>
			</g>
			<rect x="167.72" y="416.45" class="st9" width="108.94" height="87.1"/>
			<g>
				<rect x="332.85" y="390.36" class="st4" width="99.7" height="97.42"/>
				<rect x="361.34" y="390.36" class="st5" width="98.82" height="97.42"/>
				<rect x="402.88" y="390.36" class="st6" width="15.74" height="25.07"/>
				<rect x="402.88" y="462.71" class="st6" width="15.74" height="25.07"/>
				<g>
					<rect x="427.53" y="467.8" class="st7" width="25.64" height="15.49"/>
					<g>
						<rect x="428.7" y="469.97" class="st8" width="2.72" height="11.14"/>
						<rect x="433.08" y="469.97" class="st8" width="0.95" height="11.14"/>
						<rect x="437.94" y="469.97" class="st8" width="2.23" height="11.14"/>
						<rect x="435.13" y="469.97" class="st8" width="1.36" height="11.14"/>
						<rect x="441.84" y="469.97" class="st8" width="0.92" height="11.14"/>
						<rect x="446.19" y="469.97" class="st8" width="1.84" height="11.14"/>
						<rect x="448.67" y="469.97" class="st8" width="0.92" height="11.14"/>
						<rect x="444.1" y="469.97" class="st8" width="1.26" height="11.14"/>
						<rect x="450.57" y="469.97" class="st8" width="1.36" height="11.14"/>
					</g>
				</g>
			</g>
			<g>
				<rect x="365.18" y="486.63" class="st4" width="99.7" height="97.42"/>
				<rect x="393.66" y="486.63" class="st5" width="98.82" height="97.42"/>
				<rect x="429.82" y="486.63" class="st6" width="26.51" height="25.07"/>
				<rect x="429.82" y="558.98" class="st6" width="26.51" height="25.07"/>
				<g>
					<rect x="398.4" y="564.07" class="st7" width="25.64" height="15.49"/>
					<g>
						<rect x="399.57" y="566.25" class="st8" width="2.72" height="11.14"/>
						<rect x="403.94" y="566.25" class="st8" width="0.95" height="11.14"/>
						<rect x="408.81" y="566.25" class="st8" width="2.23" height="11.14"/>
						<rect x="405.99" y="566.25" class="st8" width="1.36" height="11.14"/>
						<rect x="412.71" y="566.25" class="st8" width="0.92" height="11.14"/>
						<rect x="417.06" y="566.25" class="st8" width="1.84" height="11.14"/>
						<rect x="419.54" y="566.25" class="st8" width="0.92" height="11.14"/>
						<rect x="414.97" y="566.25" class="st8" width="1.26" height="11.14"/>
						<rect x="421.43" y="566.25" class="st8" width="1.36" height="11.14"/>
					</g>
				</g>
			</g>
			<g>
				<rect x="186.45" y="432.48" class="st4" width="155.11" height="151.57"/>
				<rect x="230.77" y="432.48" class="st5" width="153.74" height="151.57"/>
				<rect x="287.02" y="432.48" class="st6" width="41.25" height="39"/>
				<rect x="287.02" y="545.05" class="st6" width="41.25" height="39"/>
				<g>
					<rect x="238.14" y="552.97" class="st7" width="39.89" height="24.1"/>
					<g>
						<rect x="239.96" y="556.35" class="st8" width="4.23" height="17.34"/>
						<rect x="246.76" y="556.35" class="st8" width="1.49" height="17.34"/>
						<rect x="254.33" y="556.35" class="st8" width="3.47" height="17.34"/>
						<rect x="249.96" y="556.35" class="st8" width="2.12" height="17.34"/>
						<rect x="260.4" y="556.35" class="st8" width="1.43" height="17.34"/>
						<rect x="267.17" y="556.35" class="st8" width="2.87" height="17.34"/>
						<rect x="271.03" y="556.35" class="st8" width="1.42" height="17.34"/>
						<rect x="263.92" y="556.35" class="st8" width="1.97" height="17.34"/>
						<rect x="273.98" y="556.35" class="st8" width="2.12" height="17.34"/>
					</g>
				</g>
			</g>
			<g>
				<rect x="539.49" y="668.22" class="st4" width="121.27" height="118.5"/>
				<rect x="574.14" y="668.22" class="st5" width="120.2" height="118.5"/>
				<rect x="618.12" y="668.22" class="st6" width="32.25" height="30.49"/>
				<rect x="618.12" y="756.23" class="st6" width="32.25" height="30.49"/>
				<g>
					<rect x="579.9" y="762.42" class="st7" width="31.18" height="18.84"/>
					<g>
						<rect x="581.33" y="765.06" class="st8" width="3.31" height="13.56"/>
						<rect x="586.64" y="765.06" class="st8" width="1.16" height="13.56"/>
						<rect x="592.56" y="765.06" class="st8" width="2.71" height="13.56"/>
						<rect x="589.14" y="765.06" class="st8" width="1.65" height="13.56"/>
						<rect x="597.3" y="765.06" class="st8" width="1.12" height="13.56"/>
						<rect x="602.6" y="765.06" class="st8" width="2.24" height="13.56"/>
						<rect x="605.61" y="765.06" class="st8" width="1.11" height="13.56"/>
						<rect x="600.06" y="765.06" class="st8" width="1.54" height="13.56"/>
						<rect x="607.92" y="765.06" class="st8" width="1.65" height="13.56"/>
					</g>
				</g>
			</g>
			<g>
				<rect x="109.89" y="626.38" class="st4" width="121.27" height="160.33"/>
				<rect x="144.54" y="626.38" class="st5" width="120.2" height="160.33"/>
				<rect x="188.51" y="626.38" class="st6" width="32.25" height="30.49"/>
				<rect x="188.51" y="756.23" class="st6" width="32.25" height="30.49"/>
				<g>
					<rect x="150.3" y="762.42" class="st7" width="31.18" height="18.84"/>
					<g>
						<rect x="151.72" y="765.06" class="st8" width="3.31" height="13.56"/>
						<rect x="157.04" y="765.06" class="st8" width="1.16" height="13.56"/>
						<rect x="162.96" y="765.06" class="st8" width="2.71" height="13.56"/>
						<rect x="159.54" y="765.06" class="st8" width="1.66" height="13.56"/>
						<rect x="167.7" y="765.06" class="st8" width="1.12" height="13.56"/>
						<rect x="173" y="765.06" class="st8" width="2.24" height="13.56"/>
						<rect x="176.01" y="765.06" class="st8" width="1.11" height="13.56"/>
						<rect x="170.46" y="765.06" class="st8" width="1.54" height="13.56"/>
						<rect x="178.32" y="765.06" class="st8" width="1.66" height="13.56"/>
					</g>
				</g>
			</g>
			<rect x="221.73" y="626.38" class="st9" width="43.02" height="160.33"/>
			<g>
				<rect x="432.39" y="689.3" class="st4" width="99.7" height="97.42"/>
				<rect x="460.87" y="689.3" class="st5" width="98.82" height="97.42"/>
				<rect x="497.02" y="689.3" class="st6" width="26.51" height="25.07"/>
				<rect x="497.02" y="761.65" class="st6" width="26.51" height="25.07"/>
				<g>
					<rect x="465.61" y="766.74" class="st7" width="25.64" height="15.49"/>
					<g>
						<rect x="466.78" y="768.91" class="st8" width="2.72" height="11.14"/>
						<rect x="471.15" y="768.91" class="st8" width="0.95" height="11.14"/>
						<rect x="476.01" y="768.91" class="st8" width="2.23" height="11.14"/>
						<rect x="473.2" y="768.91" class="st8" width="1.36" height="11.14"/>
						<rect x="479.91" y="768.91" class="st8" width="0.92" height="11.14"/>
						<rect x="484.27" y="768.91" class="st8" width="1.84" height="11.14"/>
						<rect x="486.75" y="768.91" class="st8" width="0.92" height="11.14"/>
						<rect x="482.18" y="768.91" class="st8" width="1.26" height="11.14"/>
						<rect x="488.64" y="768.91" class="st8" width="1.36" height="11.14"/>
					</g>
				</g>
			</g>
			<g>
				<rect x="253.66" y="635.15" class="st4" width="155.11" height="151.57"/>
				<rect x="297.98" y="635.15" class="st5" width="153.74" height="151.57"/>
				<rect x="354.22" y="635.15" class="st6" width="41.25" height="39"/>
				<rect x="354.22" y="747.72" class="st6" width="41.25" height="39"/>
				<g>
					<rect x="305.35" y="755.64" class="st7" width="39.89" height="24.1"/>
					<g>
						<rect x="307.17" y="759.02" class="st8" width="4.23" height="17.34"/>
						<rect x="313.97" y="759.02" class="st8" width="1.48" height="17.34"/>
						<rect x="321.54" y="759.02" class="st8" width="3.47" height="17.34"/>
						<rect x="317.16" y="759.02" class="st8" width="2.12" height="17.34"/>
						<rect x="327.6" y="759.02" class="st8" width="1.43" height="17.34"/>
						<rect x="334.38" y="759.02" class="st8" width="2.87" height="17.34"/>
						<rect x="338.23" y="759.02" class="st8" width="1.42" height="17.34"/>
						<rect x="331.13" y="759.02" class="st8" width="1.97" height="17.34"/>
						<rect x="341.19" y="759.02" class="st8" width="2.12" height="17.34"/>
					</g>
				</g>
			</g>
			<g>
				<rect x="78.33" y="486.63" class="st4" width="99.7" height="97.42"/>
				<rect x="106.81" y="486.63" class="st5" width="98.82" height="97.42"/>
				<rect x="142.96" y="486.63" class="st6" width="26.51" height="25.07"/>
				<rect x="142.96" y="558.98" class="st6" width="26.51" height="25.07"/>
				<g>
					<rect x="111.55" y="564.07" class="st7" width="25.64" height="15.49"/>
					<g>
						<rect x="112.72" y="566.25" class="st8" width="2.72" height="11.14"/>
						<rect x="117.09" y="566.25" class="st8" width="0.95" height="11.14"/>
						<rect x="121.95" y="566.25" class="st8" width="2.23" height="11.14"/>
						<rect x="119.14" y="566.25" class="st8" width="1.36" height="11.14"/>
						<rect x="125.85" y="566.25" class="st8" width="0.92" height="11.14"/>
						<rect x="130.21" y="566.25" class="st8" width="1.84" height="11.14"/>
						<rect x="132.68" y="566.25" class="st8" width="0.92" height="11.14"/>
						<rect x="128.12" y="566.25" class="st8" width="1.26" height="11.14"/>
						<rect x="134.58" y="566.25" class="st8" width="1.36" height="11.14"/>
					</g>
				</g>
			</g>
			<rect x="178.49" y="486.63" class="st9" width="27.14" height="97.42"/>
			<rect x="30.88" y="584.05" class="st10" width="780.65" height="32.57"/>
			<rect x="30.88" y="786.72" class="st10" width="780.65" height="32.57"/>
			<rect x="30.88" y="987.18" class="st10" width="780.65" height="32.57"/>
			<g>
				<rect x="24.2" y="467.64" class="st3" width="13.36" height="682.59"/>
				<rect x="198.73" y="467.64" class="st3" width="13.36" height="682.59"/>
				<rect x="30.88" y="483.51" class="st3" width="174.52" height="18.52"/>
				<rect x="30.88" y="1101.36" class="st3" width="174.52" height="18.52"/>
			</g>
		</g>
	</g>
	<g>
		<g>
			<rect x="604.21" y="666.57" class="st11" width="249.59" height="365.53"/>
			<rect x="689.17" y="666.57" class="st12" width="246.97" height="365.53"/>
			<rect x="796.99" y="666.57" class="st13" width="57.94" height="75.36"/>
			<rect x="796.99" y="956.74" class="st13" width="57.94" height="75.36"/>
			<g>
				<rect x="703.29" y="972.05" class="st14" width="76.46" height="46.56"/>
				<g>
					<rect x="706.78" y="978.58" class="st15" width="8.11" height="33.5"/>
					<rect x="719.83" y="978.58" class="st15" width="2.85" height="33.5"/>
					<rect x="734.33" y="978.58" class="st15" width="6.65" height="33.5"/>
					<rect x="725.94" y="978.58" class="st15" width="4.06" height="33.5"/>
					<rect x="745.96" y="978.58" class="st15" width="2.75" height="33.5"/>
					<rect x="758.95" y="978.58" class="st15" width="5.5" height="33.5"/>
					<rect x="766.34" y="978.58" class="st15" width="2.73" height="33.5"/>
					<rect x="752.72" y="978.58" class="st15" width="3.77" height="33.5"/>
					<rect x="771.99" y="978.58" class="st15" width="4.06" height="33.5"/>
				</g>
			</g>
		</g>
		<g>
			<rect x="778.04" y="815.2" class="st11" width="201.6" height="198.57"/>
			<rect x="835.64" y="815.2" class="st12" width="199.82" height="198.57"/>
			<rect x="919.64" y="815.2" class="st13" width="31.82" height="51.09"/>
			<rect x="919.64" y="962.68" class="st13" width="31.82" height="51.09"/>
			<g>
				<rect x="969.49" y="973.05" class="st14" width="51.84" height="31.57"/>
			</g>
		</g>
		<g>
			<rect x="843.41" y="1011.43" class="st11" width="201.6" height="198.57"/>
			<rect x="901.01" y="1011.43" class="st12" width="199.82" height="198.57"/>
			<rect x="974.11" y="1011.43" class="st13" width="53.62" height="51.09"/>
			<rect x="974.11" y="1158.91" class="st13" width="53.62" height="51.09"/>
			<g>
				<rect x="910.58" y="1169.29" class="st14" width="51.84" height="31.57"/>
			</g>
		</g>
		<g>
			<rect x="637.75" y="468" class="st11" width="201.6" height="198.57"/>
			<rect x="695.35" y="468" class="st12" width="199.82" height="198.57"/>
			<rect x="768.45" y="468" class="st13" width="53.61" height="51.09"/>
			<g>
				<rect x="704.92" y="625.85" class="st14" width="51.84" height="31.57"/>
			</g>
		</g>
		<g>
			<rect x="482" y="901.06" class="st11" width="313.65" height="308.94"/>
			<rect x="571.62" y="901.06" class="st12" width="310.89" height="308.94"/>
			<rect x="685.35" y="901.06" class="st13" width="83.42" height="79.49"/>
			<rect x="685.35" y="1130.51" class="st13" width="83.42" height="79.49"/>
			<g>
				<rect x="586.51" y="1146.65" class="st14" width="80.65" height="49.12"/>
			</g>
		</g>
	</g>
	<g>
		<polygon class="st16" points="271.71,654.5 270.02,715.22 301.75,715.85 304.34,654.99 		"/>
		<g>
			<path class="st17" d="M251.81,547.03v31.3c-0.53-0.04-1.04-0.16-1.59-0.16c-11.41,0-20.65,9.39-20.65,20.97
				c0,11.58,9.25,20.97,20.65,20.97c0.54,0,1.05-0.12,1.59-0.16v7.22c0,27.1,21.97,49.07,49.07,49.07h0.99
				c27.1,0,49.07-21.97,49.07-49.07v-80.14H251.81z"/>
			<path class="st15" d="M300.55,596.68c0,3.74-3.04,6.78-6.78,6.78c-3.74,0-6.78-3.03-6.78-6.78c0-3.74,3.03-6.78,6.78-6.78
				C297.51,589.9,300.55,592.93,300.55,596.68z"/>
			<path class="st15" d="M337.93,596.68c0,3.74-3.03,6.78-6.78,6.78c-3.74,0-6.78-3.03-6.78-6.78c0-3.74,3.03-6.78,6.78-6.78
				C334.9,589.9,337.93,592.93,337.93,596.68z"/>
			<path class="st18" d="M290.91,630.57h39.08c0,0-1.27,19.06-19.06,19.06C293.14,649.63,290.91,630.57,290.91,630.57z"/>
			<path class="st15" d="M337.13,582.7h-13.64c-1.35,0-2.45-1.09-2.45-2.45v-0.4c0-1.35,1.1-2.45,2.45-2.45h13.64
				c1.35,0,2.45,1.1,2.45,2.45v0.4C339.58,581.6,338.48,582.7,337.13,582.7z"/>
			<path class="st15" d="M300.59,582.7h-13.64c-1.35,0-2.45-1.09-2.45-2.45v-0.4c0-1.35,1.1-2.45,2.45-2.45h13.64
				c1.35,0,2.45,1.1,2.45,2.45v0.4C303.04,581.6,301.94,582.7,300.59,582.7z"/>
			<path class="st15" d="M232.32,547.03c0,0,5.3-44.06,54.97-34.74c49.67,9.32,74.67,10.59,81.44,2.12c0,0,14.3,46.6-41.57,46.6
				s-53.32-6.78-58.41,4.24c-5.08,11.01-2.12,29.23-2.12,29.23h-12.71c0,0,0.09-19.7-18.6-9.85
				C235.33,584.63,230.62,571.6,232.32,547.03z"/>
		</g>
		<path class="st19" d="M375.44,833.61c0.83-1.3,1.67-2.52,2.53-3.71c-5.94-6.16-12.43-12.97-16.84-17.81
			c-3.29-3.61-5.74-7.89-7.22-12.55l-13.92-71.17c-2.3-11.76-9.21-22.22-19.39-28.54c-0.61-0.38-1.15-0.69-1.58-0.9
			c-23.27-11.39-30.86,18.31-31.32,28.77c-0.14,3.13,0.48,6.22,1.84,9.04l39.82,88.6c2.1,4.36,6.53,7.12,11.37,7.08l26.39,19.6
			C369.05,845.54,371.94,839.11,375.44,833.61z"/>
		<path class="st15" d="M316.11,1116.98V1169h94l0-0.23c0.17-12.13-7.27-23.22-18.73-27.21c-13.34-4.64-30.83-13.57-42.65-30.38
			L316.11,1116.98z"/>
		<path class="st20" d="M348.73,1111.19l-32.62,5.79l0.23,18.14l54.06-3.62C362.57,1126.51,354.88,1119.93,348.73,1111.19z"/>
		<path class="st15" d="M236.47,1116.98V1169h94l0-0.23c0.17-12.13-7.27-23.22-18.73-27.21c-13.34-4.64-30.83-13.57-42.65-30.38
			L236.47,1116.98z"/>
		<path class="st20" d="M269.09,1111.19l-32.62,5.79l0.23,18.14l54.06-3.62C282.93,1126.51,275.24,1119.93,269.09,1111.19z"/>
		<path class="st21" d="M332.14,870.55l6.91-0.26c6.34-64.75-0.18-116.23-6.03-145.82c-3.37-17.04-15-30.95-30.14-37.48
			c-9.44,3.65-20.4,4.7-29.19-0.95c-0.77-0.49-1.46-1.08-2.16-1.64c-19.51,4.73-44.2,16.46-47.74,36.77
			c-11.13,63.94,4.32,159.04,3.72,162.03c-1.84,9.12,1.5,239.96,1.5,239.96h57.98l0.69-199.37c9.64,17.07,20.68,63.48,19.76,67.54
			l1.54,126.47l53.74,6.32l5.69-141.09C371.11,972.43,345.73,906.27,332.14,870.55z"/>
		<path class="st22" d="M253.03,851.22c18.11,2.2,36.08,5.73,54.39,5.62c3.8-0.02,7.56-0.02,11.28,0.08
			c8.59-7.67,4.29-17.66,1.21-22.46c-8.07-12.59-48.82-13.57-53.95-27.79c-5.62-15.59-3.89-32.26-3.38-48.48
			c0.71-22.44-2.37-38.86-23.71-49.14c-3.32-1.6-6.72-3.04-10.14-4.42c-3.49,4.25-6,9.07-6.96,14.52
			c-6.93,39.77-3.57,91.53-0.18,125.73C231.69,848.06,241.91,849.87,253.03,851.22z"/>
		<g>
			<path class="st21" d="M186.05,815.02l42.03-105.25c1.16-2.91,3.02-5.45,5.42-7.47c8.01-6.73,31.03-12.82,38.36,12.03
				c1.23,4.16,0.8,11.02-0.63,15.12l-36.86,70.88c-1.36,3.9,69.76-3.33,69.76-3.33l2.02,39.29c0,0-44.12,2.02-68.51,2.42
				C187.15,839.52,184.26,819.52,186.05,815.02z"/>
			<path class="st17" d="M308.58,796.39c-1.53,0.08-3.01,0.3-4.45,0.61l2.02,39.29c1.46,0.15,2.96,0.23,4.49,0.15
				c13.25-0.68,23.52-10.2,22.95-21.26C333.02,804.12,321.82,795.71,308.58,796.39z"/>
		</g>
		<polygon class="st18" points="348.59,767.55 297.03,860.8 362.69,876.01 423.38,779.9 		"/>
		<path class="st16" d="M405.6,810.4c2.39,1.87,1.05,10.77-2.65,18.82c-3.7,8.05-9.76,15.26-12.1,14.33
			c-8.17-3.25-11.34-13.63-7.27-22.79C387.65,811.62,398.6,804.92,405.6,810.4z"/>
	</g>
	<linearGradient id="SVGID_2_" gradientUnits="userSpaceOnUse" x1="48.3644" y1="1282.9832" x2="48.3644" y2="1283.0167">
		<stop  offset="0" style="stop-color:#783292"/>
		<stop  offset="0.5243" style="stop-color:#622C81"/>
		<stop  offset="1" style="stop-color:#4A256F"/>
	</linearGradient>
	<line class="st23" x1="23.58" y1="1283" x2="73.15" y2="1283"/>
	<g>
		<g>
			<path class="st24" d="M958.69,955.01c34.9,0,63.45-28.55,63.45-63.44V717.55l24.58-7.61l100.24,323.75l-170.75,52.87
				l-27.68-89.39l-51.64-42.16H958.69z"/>
			<path class="st24" d="M715.05,805.29c-8.68-11.45-9.14-27.65,0-39.45V805.29z"/>
			<path class="st24" d="M715.05,652.35v62.76l-8.82-7.2c-13.76-11.24-16.24-31.53-5.16-45.45
				C704.84,657.73,709.72,654.35,715.05,652.35z"/>
			<path class="st24" d="M666.07,538.06c11.08-13.92,31.65-16.4,45.44-5.16l3.54,2.88v83.45l-43.81-35.73
				C657.46,572.27,654.99,551.98,666.07,538.06z"/>
		</g>
		<polygon class="st25" points="1157.33,979.5 937.8,1047.48 1010.41,1282 1251,1282 		"/>
		<path class="st26" d="M777.6,698.24l-11-8.47c-19.98,5.37-29.53,18.83-30.38,39.06l10.36,8.29
			C774.82,759.62,801.36,716.04,777.6,698.24z"/>
		<g>
			<path class="st27" d="M716.1,413.15v478.4c0,34.89,28.55,63.44,63.45,63.44h180.19c34.9,0,63.45-28.55,63.45-63.44v-478.4
				c0-34.9-28.55-63.45-63.45-63.45H779.55C744.65,349.7,716.1,378.25,716.1,413.15z M743.11,396.35c0-0.49,0.4-0.89,0.89-0.89
				h251.3c0.49,0,0.89,0.4,0.89,0.89v496.93c0,0.49-0.4,0.89-0.89,0.89h-251.3c-0.49,0-0.89-0.4-0.89-0.89V396.35z"/>
			<path class="st28" d="M916.2,364.68h-93.11c-2.52,0-4.59,2.06-4.59,4.59v0c0,2.52,2.06,4.59,4.59,4.59h93.11
				c2.52,0,4.59-2.06,4.59-4.59v0C920.79,366.74,918.73,364.68,916.2,364.68z"/>
			<path class="st28" d="M869.64,910.71c-8.57,0-15.51,6.95-15.51,15.51s6.95,15.51,15.51,15.51c8.58,0,15.51-6.95,15.51-15.51
				S878.22,910.71,869.64,910.71z"/>
		</g>
		<path class="st29" d="M995.11,396.96h-251.3c-0.49,0-0.89,0.4-0.89,0.89v496.93c0,0.49,0.4,0.89,0.89,0.89h251.3
			c0.49,0,0.89-0.4,0.89-0.89V397.85C996,397.36,995.6,396.96,995.11,396.96z"/>
		<path class="st24" d="M1047.17,848.81l-21.82,6.75l-5.98-27.72l-48.19-222.59c-10.02-46.29,18.76-61.93,47.28-70.77l56.88,262.75
			C1080.12,819.3,1067.45,842.53,1047.17,848.81z"/>
		<g>
			<path class="st24" d="M712.63,766.98L712.63,766.98c-11.07,13.92-8.7,34.35,5.16,45.44l47.15,37.71
				c13.87,11.09,34.36,8.76,45.44-5.16l0,0c11.08-13.92,8.73-34.32-5.16-45.43l-47.15-37.71
				C744.18,750.71,723.71,753.06,712.63,766.98z"/>
			<path class="st26" d="M800.9,803.96l-11-8.47c-19.98,5.37-29.53,18.83-30.38,39.07l10.35,8.29
				C798.12,865.35,824.65,821.76,800.9,803.96z"/>
		</g>
		<path class="st24" d="M697.73,666.51L697.73,666.51c-11.08,13.92-8.71,34.35,5.16,45.45l40.16,32.11
			c13.87,11.09,34.36,8.76,45.44-5.16l0,0c11.08-13.92,8.73-34.33-5.16-45.43l-40.16-32.12C729.27,650.25,708.8,652.6,697.73,666.51
			z"/>
		<path class="st26" d="M779.22,699.62l-11-8.47c-19.98,5.37-29.53,18.83-30.38,39.07l10.35,8.29
			C776.44,761.01,802.97,717.42,779.22,699.62z"/>
	</g>
	<ellipse class="st18" cx="441" cy="377.5" rx="85" ry="59.5"/>
	<g class="st30">
	</g>
	<g id="Layer_4">
	</g>
	<g>
		<path class="st21" d="M444.63,389.85h-10.06c-0.03-1.45-0.04-2.33-0.04-2.64c0-3.26,0.54-5.94,1.62-8.05
			c1.08-2.1,3.23-4.47,6.47-7.1c3.23-2.63,5.17-4.35,5.8-5.17c0.97-1.29,1.46-2.71,1.46-4.26c0-2.16-0.86-4-2.58-5.54
			c-1.72-1.54-4.04-2.31-6.96-2.31c-2.81,0-5.17,0.8-7.06,2.41c-1.89,1.6-3.2,4.05-3.91,7.34l-10.18-1.26
			c0.29-4.71,2.29-8.7,6.02-11.99c3.72-3.29,8.61-4.93,14.66-4.93c6.36,0,11.43,1.66,15.19,4.99c3.76,3.33,5.64,7.2,5.64,11.62
			c0,2.45-0.69,4.76-2.07,6.94c-1.38,2.18-4.33,5.15-8.86,8.92c-2.34,1.95-3.79,3.51-4.36,4.69
			C444.83,384.69,444.57,386.8,444.63,389.85z M434.57,404.77v-11.08h11.08v11.08H434.57z"/>
	</g>
</g>
<g id="Layer_3">
</g>
<g id="Layer_2">
	<circle class="st18" cx="345.5" cy="494.5" r="9.5"/>
	<circle class="st18" cx="364.5" cy="446.5" r="21.5"/>
	<path class="st18" d="M367,439c0,0-1.79,0-4,0s-4,0-4,0s1.79,0,4,0S367,439,367,439z"/>
</g>
</svg>
